<svg width="680" height="420" viewBox="0 0 680 420" xmlns="http://www.w3.org/2000/svg">
  <title>Lyra Voss — Neural Architect 2126</title>

  <style>
    .grid-line { stroke: #00FFB2; stroke-width: 0.3; opacity: 0.08; }
  </style>

  <rect width="680" height="420" fill="#030408"/>

  <line x1="0" y1="70" x2="680" y2="70" class="grid-line"/>
  <line x1="0" y1="140" x2="680" y2="140" class="grid-line"/>
  <line x1="0" y1="210" x2="680" y2="210" class="grid-line"/>
  <line x1="0" y1="280" x2="680" y2="280" class="grid-line"/>
  <line x1="0" y1="350" x2="680" y2="350" class="grid-line"/>
  <line x1="113" y1="0" x2="113" y2="420" class="grid-line"/>
  <line x1="226" y1="0" x2="226" y2="420" class="grid-line"/>
  <line x1="340" y1="0" x2="340" y2="420" class="grid-line"/>
  <line x1="453" y1="0" x2="453" y2="420" class="grid-line"/>
  <line x1="566" y1="0" x2="566" y2="420" class="grid-line"/>

  <circle cx="340" cy="210" r="130" fill="none" stroke="#00FFB2" stroke-width="0.5" opacity="0.2"/>
  <circle cx="340" cy="210" r="100" fill="none" stroke="#00FFB2" stroke-width="0.5" stroke-dasharray="4 8" opacity="0.2"/>
  <circle cx="340" cy="210" r="70" fill="none" stroke="#00FFB2" stroke-width="0.5" opacity="0.2"/>
  <circle cx="340" cy="210" r="40" fill="none" stroke="#00FFB2" stroke-width="0.8" opacity="0.3"/>

  <polygon points="340,100 390,155 370,225 310,225 290,155" fill="none" stroke="#00FFB2" stroke-width="0.6" opacity="0.2"/>

  <line x1="210" y1="210" x2="340" y2="130" fill="none" stroke="#00FFB2" stroke-width="0.4" opacity="0.15"/>
  <line x1="470" y1="210" x2="340" y2="130" fill="none" stroke="#00FFB2" stroke-width="0.4" opacity="0.15"/>
  <line x1="210" y1="210" x2="340" y2="290" fill="none" stroke="#00FFB2" stroke-width="0.4" opacity="0.15"/>
  <line x1="470" y1="210" x2="340" y2="290" fill="none" stroke="#00FFB2" stroke-width="0.4" opacity="0.15"/>
  <line x1="210" y1="210" x2="470" y2="210" fill="none" stroke="#00FFB2" stroke-width="0.4" opacity="0.15"/>

  <circle cx="340" cy="130" r="4" fill="#00FFB2" opacity="0.6"/>
  <circle cx="340" cy="290" r="4" fill="#00FFB2" opacity="0.6"/>
  <circle cx="210" cy="210" r="4" fill="#00D4FF" opacity="0.6"/>
  <circle cx="470" cy="210" r="4" fill="#00D4FF" opacity="0.6"/>
  <circle cx="275" cy="165" r="2.5" fill="#00FFB2" opacity="0.4"/>
  <circle cx="405" cy="165" r="2.5" fill="#00FFB2" opacity="0.4"/>
  <circle cx="275" cy="255" r="2.5" fill="#00FFB2" opacity="0.4"/>
  <circle cx="405" cy="255" r="2.5" fill="#00FFB2" opacity="0.4"/>

  <circle cx="340" cy="210" r="8" fill="#00FFB2" opacity="0.9"/>
  <circle cx="340" cy="210" r="14" fill="none" stroke="#00FFB2" stroke-width="1" opacity="0.4"/>
  <circle cx="340" cy="210" r="20" fill="none" stroke="#00FFB2" stroke-width="0.5" opacity="0.2"/>
  <polygon points="340,192 346,206 340,220 334,206" fill="#030408" stroke="#00FFB2" stroke-width="1" opacity="0.8"/>

  <rect x="40" y="30" width="12" height="12" fill="none" stroke="#00FFB2" stroke-width="1" opacity="0.5"/>
  <rect x="628" y="30" width="12" height="12" fill="none" stroke="#00FFB2" stroke-width="1" opacity="0.5"/>
  <rect x="40" y="378" width="12" height="12" fill="none" stroke="#00FFB2" stroke-width="1" opacity="0.5"/>
  <rect x="628" y="378" width="12" height="12" fill="none" stroke="#00FFB2" stroke-width="1" opacity="0.5"/>
  <line x1="52" y1="36" x2="160" y2="36" stroke="#00FFB2" stroke-width="0.5" opacity="0.2"/>
  <line x1="520" y1="36" x2="628" y2="36" stroke="#00FFB2" stroke-width="0.5" opacity="0.2"/>
  <line x1="52" y1="384" x2="160" y2="384" stroke="#00FFB2" stroke-width="0.5" opacity="0.2"/>
  <line x1="520" y1="384" x2="628" y2="384" stroke="#00FFB2" stroke-width="0.5" opacity="0.2"/>

  <text x="340" y="360" text-anchor="middle" font-family="'Courier New', monospace" font-size="38" font-weight="700" fill="#00FFB2" letter-spacing="6">LYRA VOSS</text>
  <line x1="140" y1="372" x2="220" y2="372" stroke="#00FFB2" stroke-width="0.5" opacity="0.4"/>
  <line x1="460" y1="372" x2="540" y2="372" stroke="#00FFB2" stroke-width="0.5" opacity="0.4"/>
  <text x="340" y="392" text-anchor="middle" font-family="'Courier New', monospace" font-size="11" fill="#00FFB2" opacity="0.4" letter-spacing="4">NEURAL ARCHITECT — CLASS Ω — 2126</text>

  <text x="56" y="58" font-family="'Courier New', monospace" font-size="9" fill="#00FFB2" opacity="0.4" letter-spacing="2">NRL-7741-α</text>
  <text x="566" y="58" text-anchor="end" font-family="'Courier New', monospace" font-size="9" fill="#00FFB2" opacity="0.4" letter-spacing="2">v.FOLD_02</text>
  <text x="56" y="370" font-family="'Courier New', monospace" font-size="9" fill="#00FFB2" opacity="0.4" letter-spacing="2">MERIDIAN</text>
  <text x="624" y="370" text-anchor="end" font-family="'Courier New', monospace" font-size="9" fill="#00FFB2" opacity="0.4" letter-spacing="2">VERIFIED</text>
</svg>
